<mxfile host="app.diagrams.net" agent="Mozilla/5.0 (Windows NT 10.0; Win64; x64) AppleWebKit/537.36 (KHTML, like Gecko) Chrome/136.0.0.0 Safari/537.36" version="26.3.0">
  <diagram name="Page-1" id="8zuGE6NFBaZwBnD8cE7r">
    <mxGraphModel dx="6147" dy="2845" grid="1" gridSize="10" guides="1" tooltips="1" connect="1" arrows="1" fold="1" page="1" pageScale="1" pageWidth="827" pageHeight="1169" math="0" shadow="0">
      <root>
        <mxCell id="0" />
        <mxCell id="1" parent="0" />
        <mxCell id="ZLsrRHkdfncmAeT86r1m-1" value="&amp;lt;&amp;lt;Boundary&amp;gt;&amp;gt;&lt;div&gt;HomepageUI&lt;/div&gt;" style="swimlane;fontStyle=1;align=center;verticalAlign=top;childLayout=stackLayout;horizontal=1;startSize=40;horizontalStack=0;resizeParent=1;resizeParentMax=0;resizeLast=0;collapsible=1;marginBottom=0;whiteSpace=wrap;html=1;fillColor=#CCCCFF;" vertex="1" parent="1">
          <mxGeometry x="-4594.5" y="-1490" width="179" height="302" as="geometry" />
        </mxCell>
        <mxCell id="ZLsrRHkdfncmAeT86r1m-2" value="+btnChooseStory: button" style="text;strokeColor=none;fillColor=none;align=left;verticalAlign=top;spacingLeft=4;spacingRight=4;overflow=hidden;rotatable=0;points=[[0,0.5],[1,0.5]];portConstraint=eastwest;whiteSpace=wrap;html=1;" vertex="1" parent="ZLsrRHkdfncmAeT86r1m-1">
          <mxGeometry y="40" width="179" height="26" as="geometry" />
        </mxCell>
        <mxCell id="ZLsrRHkdfncmAeT86r1m-3" value="+lblWelcomeBack: label" style="text;strokeColor=none;fillColor=none;align=left;verticalAlign=top;spacingLeft=4;spacingRight=4;overflow=hidden;rotatable=0;points=[[0,0.5],[1,0.5]];portConstraint=eastwest;whiteSpace=wrap;html=1;" vertex="1" parent="ZLsrRHkdfncmAeT86r1m-1">
          <mxGeometry y="66" width="179" height="26" as="geometry" />
        </mxCell>
        <mxCell id="ZLsrRHkdfncmAeT86r1m-4" value="+lblUsername: label&lt;span style=&quot;color: rgba(0, 0, 0, 0); font-family: monospace; font-size: 0px; text-wrap-mode: nowrap;&quot;&gt;%3CmxGraphModel%3E%3Croot%3E%3CmxCell%20id%3D%220%22%2F%3E%3CmxCell%20id%3D%221%22%20parent%3D%220%22%2F%3E%3CmxCell%20id%3D%222%22%20value%3D%22%2BbtnChooseStory%3A%20button%22%20style%3D%22text%3BstrokeColor%3Dnone%3BfillColor%3Dnone%3Balign%3Dleft%3BverticalAlign%3Dtop%3BspacingLeft%3D4%3BspacingRight%3D4%3Boverflow%3Dhidden%3Brotatable%3D0%3Bpoints%3D%5B%5B0%2C0.5%5D%2C%5B1%2C0.5%5D%5D%3BportConstraint%3Deastwest%3BwhiteSpace%3Dwrap%3Bhtml%3D1%3B%22%20vertex%3D%221%22%20parent%3D%221%22%3E%3CmxGeometry%20x%3D%22-3540%22%20y%3D%22-1824%22%20width%3D%22179%22%20height%3D%2226%22%20as%3D%22geometry%22%2F%3E%3C%2FmxCell%3E%3C%2Froot%3E%3C%2FmxGraphModel%3E&lt;/span&gt;" style="text;strokeColor=none;fillColor=none;align=left;verticalAlign=top;spacingLeft=4;spacingRight=4;overflow=hidden;rotatable=0;points=[[0,0.5],[1,0.5]];portConstraint=eastwest;whiteSpace=wrap;html=1;" vertex="1" parent="ZLsrRHkdfncmAeT86r1m-1">
          <mxGeometry y="92" width="179" height="26" as="geometry" />
        </mxCell>
        <mxCell id="ZLsrRHkdfncmAeT86r1m-5" value="+btnReturnHome: button" style="text;strokeColor=none;fillColor=none;align=left;verticalAlign=top;spacingLeft=4;spacingRight=4;overflow=hidden;rotatable=0;points=[[0,0.5],[1,0.5]];portConstraint=eastwest;whiteSpace=wrap;html=1;" vertex="1" parent="ZLsrRHkdfncmAeT86r1m-1">
          <mxGeometry y="118" width="179" height="26" as="geometry" />
        </mxCell>
        <mxCell id="ZLsrRHkdfncmAeT86r1m-6" value="+btnSettings: button" style="text;strokeColor=none;fillColor=none;align=left;verticalAlign=top;spacingLeft=4;spacingRight=4;overflow=hidden;rotatable=0;points=[[0,0.5],[1,0.5]];portConstraint=eastwest;whiteSpace=wrap;html=1;" vertex="1" parent="ZLsrRHkdfncmAeT86r1m-1">
          <mxGeometry y="144" width="179" height="26" as="geometry" />
        </mxCell>
        <mxCell id="ZLsrRHkdfncmAeT86r1m-7" value="+btnLogout: button" style="text;strokeColor=none;fillColor=none;align=left;verticalAlign=top;spacingLeft=4;spacingRight=4;overflow=hidden;rotatable=0;points=[[0,0.5],[1,0.5]];portConstraint=eastwest;whiteSpace=wrap;html=1;" vertex="1" parent="ZLsrRHkdfncmAeT86r1m-1">
          <mxGeometry y="170" width="179" height="26" as="geometry" />
        </mxCell>
        <mxCell id="ZLsrRHkdfncmAeT86r1m-8" value="" style="line;strokeWidth=1;fillColor=none;align=left;verticalAlign=middle;spacingTop=-1;spacingLeft=3;spacingRight=3;rotatable=0;labelPosition=right;points=[];portConstraint=eastwest;strokeColor=inherit;" vertex="1" parent="ZLsrRHkdfncmAeT86r1m-1">
          <mxGeometry y="196" width="179" height="8" as="geometry" />
        </mxCell>
        <mxCell id="ZLsrRHkdfncmAeT86r1m-9" value="+btnChooseStoryPress(): void" style="text;strokeColor=none;fillColor=none;align=left;verticalAlign=top;spacingLeft=4;spacingRight=4;overflow=hidden;rotatable=0;points=[[0,0.5],[1,0.5]];portConstraint=eastwest;whiteSpace=wrap;html=1;" vertex="1" parent="ZLsrRHkdfncmAeT86r1m-1">
          <mxGeometry y="204" width="179" height="20" as="geometry" />
        </mxCell>
        <mxCell id="ZLsrRHkdfncmAeT86r1m-10" value="+btnReturnHomePress(): void" style="text;strokeColor=none;fillColor=none;align=left;verticalAlign=top;spacingLeft=4;spacingRight=4;overflow=hidden;rotatable=0;points=[[0,0.5],[1,0.5]];portConstraint=eastwest;whiteSpace=wrap;html=1;" vertex="1" parent="ZLsrRHkdfncmAeT86r1m-1">
          <mxGeometry y="224" width="179" height="26" as="geometry" />
        </mxCell>
        <mxCell id="ZLsrRHkdfncmAeT86r1m-11" value="+btnSettingsPress(): void" style="text;strokeColor=none;fillColor=none;align=left;verticalAlign=top;spacingLeft=4;spacingRight=4;overflow=hidden;rotatable=0;points=[[0,0.5],[1,0.5]];portConstraint=eastwest;whiteSpace=wrap;html=1;" vertex="1" parent="ZLsrRHkdfncmAeT86r1m-1">
          <mxGeometry y="250" width="179" height="26" as="geometry" />
        </mxCell>
        <mxCell id="ZLsrRHkdfncmAeT86r1m-12" value="+btnLogoutPress(): void" style="text;strokeColor=none;fillColor=none;align=left;verticalAlign=top;spacingLeft=4;spacingRight=4;overflow=hidden;rotatable=0;points=[[0,0.5],[1,0.5]];portConstraint=eastwest;whiteSpace=wrap;html=1;" vertex="1" parent="ZLsrRHkdfncmAeT86r1m-1">
          <mxGeometry y="276" width="179" height="26" as="geometry" />
        </mxCell>
        <mxCell id="ZLsrRHkdfncmAeT86r1m-13" value="&lt;div&gt;&amp;lt;&amp;lt;Entity&amp;gt;&amp;gt;&lt;/div&gt;Account" style="swimlane;fontStyle=1;align=center;verticalAlign=top;childLayout=stackLayout;horizontal=1;startSize=37;horizontalStack=0;resizeParent=1;resizeParentMax=0;resizeLast=0;collapsible=1;marginBottom=0;whiteSpace=wrap;html=1;fillColor=#9AC7BF;" vertex="1" parent="1">
          <mxGeometry x="-4620" y="-2312" width="230" height="615" as="geometry" />
        </mxCell>
        <mxCell id="ZLsrRHkdfncmAeT86r1m-14" value="+name: String&lt;div&gt;&lt;br&gt;&lt;/div&gt;" style="text;strokeColor=none;fillColor=none;align=left;verticalAlign=top;spacingLeft=4;spacingRight=4;overflow=hidden;rotatable=0;points=[[0,0.5],[1,0.5]];portConstraint=eastwest;whiteSpace=wrap;html=1;" vertex="1" parent="ZLsrRHkdfncmAeT86r1m-13">
          <mxGeometry y="37" width="230" height="24" as="geometry" />
        </mxCell>
        <mxCell id="ZLsrRHkdfncmAeT86r1m-15" value="+password: String&lt;div&gt;&lt;br&gt;&lt;/div&gt;&lt;div&gt;&lt;br&gt;&lt;/div&gt;" style="text;strokeColor=none;fillColor=none;align=left;verticalAlign=top;spacingLeft=4;spacingRight=4;overflow=hidden;rotatable=0;points=[[0,0.5],[1,0.5]];portConstraint=eastwest;whiteSpace=wrap;html=1;" vertex="1" parent="ZLsrRHkdfncmAeT86r1m-13">
          <mxGeometry y="61" width="230" height="26" as="geometry" />
        </mxCell>
        <mxCell id="ZLsrRHkdfncmAeT86r1m-16" value="+email: String&lt;div&gt;&lt;br&gt;&lt;/div&gt;&lt;div&gt;&lt;br&gt;&lt;/div&gt;" style="text;strokeColor=none;fillColor=none;align=left;verticalAlign=top;spacingLeft=4;spacingRight=4;overflow=hidden;rotatable=0;points=[[0,0.5],[1,0.5]];portConstraint=eastwest;whiteSpace=wrap;html=1;" vertex="1" parent="ZLsrRHkdfncmAeT86r1m-13">
          <mxGeometry y="87" width="230" height="26" as="geometry" />
        </mxCell>
        <mxCell id="ZLsrRHkdfncmAeT86r1m-17" value="+id: Integer&lt;div&gt;&lt;br&gt;&lt;/div&gt;" style="text;strokeColor=none;fillColor=none;align=left;verticalAlign=top;spacingLeft=4;spacingRight=4;overflow=hidden;rotatable=0;points=[[0,0.5],[1,0.5]];portConstraint=eastwest;whiteSpace=wrap;html=1;" vertex="1" parent="ZLsrRHkdfncmAeT86r1m-13">
          <mxGeometry y="113" width="230" height="26" as="geometry" />
        </mxCell>
        <mxCell id="ZLsrRHkdfncmAeT86r1m-18" value="+exists: boolean&lt;div&gt;&lt;br&gt;&lt;/div&gt;" style="text;strokeColor=none;fillColor=none;align=left;verticalAlign=top;spacingLeft=4;spacingRight=4;overflow=hidden;rotatable=0;points=[[0,0.5],[1,0.5]];portConstraint=eastwest;whiteSpace=wrap;html=1;" vertex="1" parent="ZLsrRHkdfncmAeT86r1m-13">
          <mxGeometry y="139" width="230" height="26" as="geometry" />
        </mxCell>
        <mxCell id="ZLsrRHkdfncmAeT86r1m-19" value="+role: String&lt;div&gt;&lt;br&gt;&lt;/div&gt;&lt;div&gt;&lt;br&gt;&lt;/div&gt;" style="text;strokeColor=none;fillColor=none;align=left;verticalAlign=top;spacingLeft=4;spacingRight=4;overflow=hidden;rotatable=0;points=[[0,0.5],[1,0.5]];portConstraint=eastwest;whiteSpace=wrap;html=1;" vertex="1" parent="ZLsrRHkdfncmAeT86r1m-13">
          <mxGeometry y="165" width="230" height="26" as="geometry" />
        </mxCell>
        <mxCell id="ZLsrRHkdfncmAeT86r1m-20" value="&lt;div&gt;+chosen_story: Story&lt;/div&gt;" style="text;strokeColor=none;fillColor=none;align=left;verticalAlign=top;spacingLeft=4;spacingRight=4;overflow=hidden;rotatable=0;points=[[0,0.5],[1,0.5]];portConstraint=eastwest;whiteSpace=wrap;html=1;" vertex="1" parent="ZLsrRHkdfncmAeT86r1m-13">
          <mxGeometry y="191" width="230" height="26" as="geometry" />
        </mxCell>
        <mxCell id="ZLsrRHkdfncmAeT86r1m-21" value="" style="line;strokeWidth=1;fillColor=none;align=left;verticalAlign=middle;spacingTop=-1;spacingLeft=3;spacingRight=3;rotatable=0;labelPosition=right;points=[];portConstraint=eastwest;strokeColor=inherit;" vertex="1" parent="ZLsrRHkdfncmAeT86r1m-13">
          <mxGeometry y="217" width="230" height="8" as="geometry" />
        </mxCell>
        <mxCell id="ZLsrRHkdfncmAeT86r1m-22" value="+Account(): void" style="text;strokeColor=none;fillColor=none;align=left;verticalAlign=top;spacingLeft=4;spacingRight=4;overflow=hidden;rotatable=0;points=[[0,0.5],[1,0.5]];portConstraint=eastwest;whiteSpace=wrap;html=1;" vertex="1" parent="ZLsrRHkdfncmAeT86r1m-13">
          <mxGeometry y="225" width="230" height="26" as="geometry" />
        </mxCell>
        <mxCell id="ZLsrRHkdfncmAeT86r1m-23" value="+getName(): String&lt;div&gt;&lt;br&gt;&lt;/div&gt;&lt;div&gt;&lt;br&gt;&lt;/div&gt;" style="text;strokeColor=none;fillColor=none;align=left;verticalAlign=top;spacingLeft=4;spacingRight=4;overflow=hidden;rotatable=0;points=[[0,0.5],[1,0.5]];portConstraint=eastwest;whiteSpace=wrap;html=1;" vertex="1" parent="ZLsrRHkdfncmAeT86r1m-13">
          <mxGeometry y="251" width="230" height="26" as="geometry" />
        </mxCell>
        <mxCell id="ZLsrRHkdfncmAeT86r1m-24" value="+setName(name : String): void" style="text;strokeColor=none;fillColor=none;align=left;verticalAlign=top;spacingLeft=4;spacingRight=4;overflow=hidden;rotatable=0;points=[[0,0.5],[1,0.5]];portConstraint=eastwest;whiteSpace=wrap;html=1;" vertex="1" parent="ZLsrRHkdfncmAeT86r1m-13">
          <mxGeometry y="277" width="230" height="26" as="geometry" />
        </mxCell>
        <mxCell id="ZLsrRHkdfncmAeT86r1m-25" value="+getPassword(): String" style="text;strokeColor=none;fillColor=none;align=left;verticalAlign=top;spacingLeft=4;spacingRight=4;overflow=hidden;rotatable=0;points=[[0,0.5],[1,0.5]];portConstraint=eastwest;whiteSpace=wrap;html=1;" vertex="1" parent="ZLsrRHkdfncmAeT86r1m-13">
          <mxGeometry y="303" width="230" height="26" as="geometry" />
        </mxCell>
        <mxCell id="ZLsrRHkdfncmAeT86r1m-26" value="+setPassword(password: String): void" style="text;strokeColor=none;fillColor=none;align=left;verticalAlign=top;spacingLeft=4;spacingRight=4;overflow=hidden;rotatable=0;points=[[0,0.5],[1,0.5]];portConstraint=eastwest;whiteSpace=wrap;html=1;" vertex="1" parent="ZLsrRHkdfncmAeT86r1m-13">
          <mxGeometry y="329" width="230" height="26" as="geometry" />
        </mxCell>
        <mxCell id="ZLsrRHkdfncmAeT86r1m-27" value="+getEmail(): String" style="text;strokeColor=none;fillColor=none;align=left;verticalAlign=top;spacingLeft=4;spacingRight=4;overflow=hidden;rotatable=0;points=[[0,0.5],[1,0.5]];portConstraint=eastwest;whiteSpace=wrap;html=1;" vertex="1" parent="ZLsrRHkdfncmAeT86r1m-13">
          <mxGeometry y="355" width="230" height="26" as="geometry" />
        </mxCell>
        <mxCell id="ZLsrRHkdfncmAeT86r1m-28" value="+setEmail(email: String): void" style="text;strokeColor=none;fillColor=none;align=left;verticalAlign=top;spacingLeft=4;spacingRight=4;overflow=hidden;rotatable=0;points=[[0,0.5],[1,0.5]];portConstraint=eastwest;whiteSpace=wrap;html=1;" vertex="1" parent="ZLsrRHkdfncmAeT86r1m-13">
          <mxGeometry y="381" width="230" height="26" as="geometry" />
        </mxCell>
        <mxCell id="ZLsrRHkdfncmAeT86r1m-29" value="+getId(): Integer" style="text;strokeColor=none;fillColor=none;align=left;verticalAlign=top;spacingLeft=4;spacingRight=4;overflow=hidden;rotatable=0;points=[[0,0.5],[1,0.5]];portConstraint=eastwest;whiteSpace=wrap;html=1;" vertex="1" parent="ZLsrRHkdfncmAeT86r1m-13">
          <mxGeometry y="407" width="230" height="26" as="geometry" />
        </mxCell>
        <mxCell id="ZLsrRHkdfncmAeT86r1m-30" value="+setId(id: Integer): void&lt;div&gt;&lt;br&gt;&lt;/div&gt;" style="text;strokeColor=none;fillColor=none;align=left;verticalAlign=top;spacingLeft=4;spacingRight=4;overflow=hidden;rotatable=0;points=[[0,0.5],[1,0.5]];portConstraint=eastwest;whiteSpace=wrap;html=1;" vertex="1" parent="ZLsrRHkdfncmAeT86r1m-13">
          <mxGeometry y="433" width="230" height="26" as="geometry" />
        </mxCell>
        <mxCell id="ZLsrRHkdfncmAeT86r1m-31" value="+getExists(): Boolean" style="text;strokeColor=none;fillColor=none;align=left;verticalAlign=top;spacingLeft=4;spacingRight=4;overflow=hidden;rotatable=0;points=[[0,0.5],[1,0.5]];portConstraint=eastwest;whiteSpace=wrap;html=1;" vertex="1" parent="ZLsrRHkdfncmAeT86r1m-13">
          <mxGeometry y="459" width="230" height="26" as="geometry" />
        </mxCell>
        <mxCell id="ZLsrRHkdfncmAeT86r1m-32" value="+setExists(exists: Boolean): void" style="text;strokeColor=none;fillColor=none;align=left;verticalAlign=top;spacingLeft=4;spacingRight=4;overflow=hidden;rotatable=0;points=[[0,0.5],[1,0.5]];portConstraint=eastwest;whiteSpace=wrap;html=1;" vertex="1" parent="ZLsrRHkdfncmAeT86r1m-13">
          <mxGeometry y="485" width="230" height="26" as="geometry" />
        </mxCell>
        <mxCell id="ZLsrRHkdfncmAeT86r1m-33" value="+getRole() : String" style="text;strokeColor=none;fillColor=none;align=left;verticalAlign=top;spacingLeft=4;spacingRight=4;overflow=hidden;rotatable=0;points=[[0,0.5],[1,0.5]];portConstraint=eastwest;whiteSpace=wrap;html=1;" vertex="1" parent="ZLsrRHkdfncmAeT86r1m-13">
          <mxGeometry y="511" width="230" height="26" as="geometry" />
        </mxCell>
        <mxCell id="ZLsrRHkdfncmAeT86r1m-34" value="+setRole(role String): void" style="text;strokeColor=none;fillColor=none;align=left;verticalAlign=top;spacingLeft=4;spacingRight=4;overflow=hidden;rotatable=0;points=[[0,0.5],[1,0.5]];portConstraint=eastwest;whiteSpace=wrap;html=1;" vertex="1" parent="ZLsrRHkdfncmAeT86r1m-13">
          <mxGeometry y="537" width="230" height="26" as="geometry" />
        </mxCell>
        <mxCell id="ZLsrRHkdfncmAeT86r1m-35" value="+getChosenStory(): Story:&amp;nbsp;" style="text;strokeColor=none;fillColor=none;align=left;verticalAlign=top;spacingLeft=4;spacingRight=4;overflow=hidden;rotatable=0;points=[[0,0.5],[1,0.5]];portConstraint=eastwest;whiteSpace=wrap;html=1;" vertex="1" parent="ZLsrRHkdfncmAeT86r1m-13">
          <mxGeometry y="563" width="230" height="26" as="geometry" />
        </mxCell>
        <mxCell id="ZLsrRHkdfncmAeT86r1m-36" value="+ method(type): type" style="text;strokeColor=none;fillColor=none;align=left;verticalAlign=top;spacingLeft=4;spacingRight=4;overflow=hidden;rotatable=0;points=[[0,0.5],[1,0.5]];portConstraint=eastwest;whiteSpace=wrap;html=1;" vertex="1" parent="ZLsrRHkdfncmAeT86r1m-13">
          <mxGeometry y="589" width="230" height="26" as="geometry" />
        </mxCell>
        <mxCell id="ZLsrRHkdfncmAeT86r1m-37" value="&amp;lt;&amp;lt;Controller&amp;gt;&amp;gt;&lt;div&gt;AccountController&lt;/div&gt;" style="swimlane;fontStyle=1;align=center;verticalAlign=top;childLayout=stackLayout;horizontal=1;startSize=45;horizontalStack=0;resizeParent=1;resizeParentMax=0;resizeLast=0;collapsible=1;marginBottom=0;whiteSpace=wrap;html=1;fillColor=#FF6666;" vertex="1" parent="1">
          <mxGeometry x="-4590" y="-1654.5" width="170" height="131" as="geometry" />
        </mxCell>
        <mxCell id="ZLsrRHkdfncmAeT86r1m-38" value="" style="line;strokeWidth=1;fillColor=none;align=left;verticalAlign=middle;spacingTop=-1;spacingLeft=3;spacingRight=3;rotatable=0;labelPosition=right;points=[];portConstraint=eastwest;strokeColor=inherit;" vertex="1" parent="ZLsrRHkdfncmAeT86r1m-37">
          <mxGeometry y="45" width="170" height="8" as="geometry" />
        </mxCell>
        <mxCell id="ZLsrRHkdfncmAeT86r1m-39" value="+create_account():void&amp;nbsp;" style="text;strokeColor=none;fillColor=none;align=left;verticalAlign=top;spacingLeft=4;spacingRight=4;overflow=hidden;rotatable=0;points=[[0,0.5],[1,0.5]];portConstraint=eastwest;whiteSpace=wrap;html=1;" vertex="1" parent="ZLsrRHkdfncmAeT86r1m-37">
          <mxGeometry y="53" width="170" height="26" as="geometry" />
        </mxCell>
        <mxCell id="ZLsrRHkdfncmAeT86r1m-40" value="+choose_role(): str" style="text;strokeColor=none;fillColor=none;align=left;verticalAlign=top;spacingLeft=4;spacingRight=4;overflow=hidden;rotatable=0;points=[[0,0.5],[1,0.5]];portConstraint=eastwest;whiteSpace=wrap;html=1;" vertex="1" parent="ZLsrRHkdfncmAeT86r1m-37">
          <mxGeometry y="79" width="170" height="26" as="geometry" />
        </mxCell>
        <mxCell id="ZLsrRHkdfncmAeT86r1m-41" value="+return_to_homepage(): void" style="text;strokeColor=none;fillColor=none;align=left;verticalAlign=top;spacingLeft=4;spacingRight=4;overflow=hidden;rotatable=0;points=[[0,0.5],[1,0.5]];portConstraint=eastwest;whiteSpace=wrap;html=1;" vertex="1" parent="ZLsrRHkdfncmAeT86r1m-37">
          <mxGeometry y="105" width="170" height="26" as="geometry" />
        </mxCell>
        <mxCell id="ZLsrRHkdfncmAeT86r1m-42" value="" style="endArrow=open;endFill=1;endSize=12;html=1;rounded=0;exitX=0.5;exitY=0;exitDx=0;exitDy=0;" edge="1" parent="1" source="ZLsrRHkdfncmAeT86r1m-37" target="ZLsrRHkdfncmAeT86r1m-36">
          <mxGeometry width="160" relative="1" as="geometry">
            <mxPoint x="-4610" y="-1722" as="sourcePoint" />
            <mxPoint x="-5054" y="-1758" as="targetPoint" />
          </mxGeometry>
        </mxCell>
        <mxCell id="ZLsrRHkdfncmAeT86r1m-43" value="&amp;lt;&amp;lt; Boundary&amp;gt;&amp;gt;&lt;div&gt;ChooseRoleDialog&lt;/div&gt;" style="swimlane;fontStyle=1;align=center;verticalAlign=top;childLayout=stackLayout;horizontal=1;startSize=45;horizontalStack=0;resizeParent=1;resizeParentMax=0;resizeLast=0;collapsible=1;marginBottom=0;whiteSpace=wrap;html=1;fillColor=#CCCCFF;" vertex="1" parent="1">
          <mxGeometry x="-4860" y="-1642" width="210" height="183" as="geometry" />
        </mxCell>
        <mxCell id="ZLsrRHkdfncmAeT86r1m-44" value="+btnSolver: button" style="text;strokeColor=none;fillColor=none;align=left;verticalAlign=top;spacingLeft=4;spacingRight=4;overflow=hidden;rotatable=0;points=[[0,0.5],[1,0.5]];portConstraint=eastwest;whiteSpace=wrap;html=1;" vertex="1" parent="ZLsrRHkdfncmAeT86r1m-43">
          <mxGeometry y="45" width="210" height="26" as="geometry" />
        </mxCell>
        <mxCell id="ZLsrRHkdfncmAeT86r1m-45" value="+btnGamemaster: button" style="text;strokeColor=none;fillColor=none;align=left;verticalAlign=top;spacingLeft=4;spacingRight=4;overflow=hidden;rotatable=0;points=[[0,0.5],[1,0.5]];portConstraint=eastwest;whiteSpace=wrap;html=1;" vertex="1" parent="ZLsrRHkdfncmAeT86r1m-43">
          <mxGeometry y="71" width="210" height="26" as="geometry" />
        </mxCell>
        <mxCell id="ZLsrRHkdfncmAeT86r1m-46" value="+lblChooseRole: label" style="text;strokeColor=none;fillColor=none;align=left;verticalAlign=top;spacingLeft=4;spacingRight=4;overflow=hidden;rotatable=0;points=[[0,0.5],[1,0.5]];portConstraint=eastwest;whiteSpace=wrap;html=1;" vertex="1" parent="ZLsrRHkdfncmAeT86r1m-43">
          <mxGeometry y="97" width="210" height="26" as="geometry" />
        </mxCell>
        <mxCell id="ZLsrRHkdfncmAeT86r1m-47" value="" style="line;strokeWidth=1;fillColor=none;align=left;verticalAlign=middle;spacingTop=-1;spacingLeft=3;spacingRight=3;rotatable=0;labelPosition=right;points=[];portConstraint=eastwest;strokeColor=inherit;" vertex="1" parent="ZLsrRHkdfncmAeT86r1m-43">
          <mxGeometry y="123" width="210" height="8" as="geometry" />
        </mxCell>
        <mxCell id="ZLsrRHkdfncmAeT86r1m-48" value="+btnSolverPress(): void" style="text;strokeColor=none;fillColor=none;align=left;verticalAlign=top;spacingLeft=4;spacingRight=4;overflow=hidden;rotatable=0;points=[[0,0.5],[1,0.5]];portConstraint=eastwest;whiteSpace=wrap;html=1;" vertex="1" parent="ZLsrRHkdfncmAeT86r1m-43">
          <mxGeometry y="131" width="210" height="26" as="geometry" />
        </mxCell>
        <mxCell id="ZLsrRHkdfncmAeT86r1m-49" value="+btnGamemasterPress(): void" style="text;strokeColor=none;fillColor=none;align=left;verticalAlign=top;spacingLeft=4;spacingRight=4;overflow=hidden;rotatable=0;points=[[0,0.5],[1,0.5]];portConstraint=eastwest;whiteSpace=wrap;html=1;" vertex="1" parent="ZLsrRHkdfncmAeT86r1m-43">
          <mxGeometry y="157" width="210" height="26" as="geometry" />
        </mxCell>
        <mxCell id="ZLsrRHkdfncmAeT86r1m-50" value="" style="endArrow=open;endFill=1;endSize=12;html=1;rounded=0;entryX=0;entryY=0.5;entryDx=0;entryDy=0;exitX=1;exitY=0.5;exitDx=0;exitDy=0;" edge="1" parent="1" source="ZLsrRHkdfncmAeT86r1m-45" target="ZLsrRHkdfncmAeT86r1m-40">
          <mxGeometry width="160" relative="1" as="geometry">
            <mxPoint x="-5015" y="-1394" as="sourcePoint" />
            <mxPoint x="-4720" y="-1540" as="targetPoint" />
          </mxGeometry>
        </mxCell>
        <mxCell id="ZLsrRHkdfncmAeT86r1m-51" value="&amp;lt;&amp;lt; Boundary&amp;gt;&amp;gt;&lt;div&gt;HomepageGamemasterUI&lt;/div&gt;" style="swimlane;fontStyle=1;align=center;verticalAlign=top;childLayout=stackLayout;horizontal=1;startSize=45;horizontalStack=0;resizeParent=1;resizeParentMax=0;resizeLast=0;collapsible=1;marginBottom=0;whiteSpace=wrap;html=1;fillColor=#CCCCFF;" vertex="1" parent="1">
          <mxGeometry x="-4370" y="-1500" width="210" height="105" as="geometry" />
        </mxCell>
        <mxCell id="ZLsrRHkdfncmAeT86r1m-52" value="+btnManageInvitations: button" style="text;strokeColor=none;fillColor=none;align=left;verticalAlign=top;spacingLeft=4;spacingRight=4;overflow=hidden;rotatable=0;points=[[0,0.5],[1,0.5]];portConstraint=eastwest;whiteSpace=wrap;html=1;" vertex="1" parent="ZLsrRHkdfncmAeT86r1m-51">
          <mxGeometry y="45" width="210" height="26" as="geometry" />
        </mxCell>
        <mxCell id="ZLsrRHkdfncmAeT86r1m-53" value="" style="line;strokeWidth=1;fillColor=none;align=left;verticalAlign=middle;spacingTop=-1;spacingLeft=3;spacingRight=3;rotatable=0;labelPosition=right;points=[];portConstraint=eastwest;strokeColor=inherit;" vertex="1" parent="ZLsrRHkdfncmAeT86r1m-51">
          <mxGeometry y="71" width="210" height="8" as="geometry" />
        </mxCell>
        <mxCell id="ZLsrRHkdfncmAeT86r1m-54" value="+btnManageInvitationsPress(): void" style="text;strokeColor=none;fillColor=none;align=left;verticalAlign=top;spacingLeft=4;spacingRight=4;overflow=hidden;rotatable=0;points=[[0,0.5],[1,0.5]];portConstraint=eastwest;whiteSpace=wrap;html=1;" vertex="1" parent="ZLsrRHkdfncmAeT86r1m-51">
          <mxGeometry y="79" width="210" height="26" as="geometry" />
        </mxCell>
        <mxCell id="ZLsrRHkdfncmAeT86r1m-55" value="" style="endArrow=open;endFill=1;endSize=12;html=1;rounded=0;exitX=0.5;exitY=0;exitDx=0;exitDy=0;entryX=1;entryY=0.5;entryDx=0;entryDy=0;" edge="1" parent="1" source="ZLsrRHkdfncmAeT86r1m-51" target="ZLsrRHkdfncmAeT86r1m-40">
          <mxGeometry width="160" relative="1" as="geometry">
            <mxPoint x="-4280" y="-2223" as="sourcePoint" />
            <mxPoint x="-4470" y="-1502" as="targetPoint" />
          </mxGeometry>
        </mxCell>
        <mxCell id="ZLsrRHkdfncmAeT86r1m-56" value="" style="endArrow=block;endSize=16;endFill=0;html=1;rounded=0;entryX=1;entryY=0.5;entryDx=0;entryDy=0;exitX=0;exitY=0.5;exitDx=0;exitDy=0;" edge="1" parent="1" source="ZLsrRHkdfncmAeT86r1m-52" target="ZLsrRHkdfncmAeT86r1m-2">
          <mxGeometry width="160" relative="1" as="geometry">
            <mxPoint x="-4350" y="-1309" as="sourcePoint" />
            <mxPoint x="-4295" y="-1205" as="targetPoint" />
          </mxGeometry>
        </mxCell>
        <mxCell id="ZLsrRHkdfncmAeT86r1m-57" value="" style="endArrow=open;endFill=1;endSize=12;html=1;rounded=0;exitX=0.5;exitY=0;exitDx=0;exitDy=0;entryX=0.504;entryY=1.055;entryDx=0;entryDy=0;entryPerimeter=0;" edge="1" parent="1" source="ZLsrRHkdfncmAeT86r1m-1" target="ZLsrRHkdfncmAeT86r1m-41">
          <mxGeometry width="160" relative="1" as="geometry">
            <mxPoint x="-4465" y="-1402" as="sourcePoint" />
            <mxPoint x="-4571" y="-1467" as="targetPoint" />
          </mxGeometry>
        </mxCell>
        <mxCell id="ZLsrRHkdfncmAeT86r1m-58" value="&lt;div&gt;&amp;lt;&amp;lt;Entity&amp;gt;&amp;gt;&lt;/div&gt;SolverAccount" style="swimlane;fontStyle=1;align=center;verticalAlign=top;childLayout=stackLayout;horizontal=1;startSize=36;horizontalStack=0;resizeParent=1;resizeParentMax=0;resizeLast=0;collapsible=1;marginBottom=0;whiteSpace=wrap;html=1;fillColor=#9AC7BF;" vertex="1" collapsed="1" parent="1">
          <mxGeometry x="-4820" y="-1730" width="120" height="40" as="geometry">
            <mxRectangle x="-4962" y="-1573" width="308" height="201" as="alternateBounds" />
          </mxGeometry>
        </mxCell>
        <mxCell id="ZLsrRHkdfncmAeT86r1m-59" value="+invited: Boolean" style="text;strokeColor=none;fillColor=none;align=left;verticalAlign=top;spacingLeft=4;spacingRight=4;overflow=hidden;rotatable=0;points=[[0,0.5],[1,0.5]];portConstraint=eastwest;whiteSpace=wrap;html=1;" vertex="1" parent="ZLsrRHkdfncmAeT86r1m-58">
          <mxGeometry y="36" width="308" height="26" as="geometry" />
        </mxCell>
        <mxCell id="ZLsrRHkdfncmAeT86r1m-60" value="+used_hints: Integer&lt;div&gt;&lt;br&gt;&lt;/div&gt;" style="text;strokeColor=none;fillColor=none;align=left;verticalAlign=top;spacingLeft=4;spacingRight=4;overflow=hidden;rotatable=0;points=[[0,0.5],[1,0.5]];portConstraint=eastwest;whiteSpace=wrap;html=1;" vertex="1" parent="ZLsrRHkdfncmAeT86r1m-58">
          <mxGeometry y="62" width="308" height="27" as="geometry" />
        </mxCell>
        <mxCell id="ZLsrRHkdfncmAeT86r1m-61" value="" style="line;strokeWidth=1;fillColor=none;align=left;verticalAlign=middle;spacingTop=-1;spacingLeft=3;spacingRight=3;rotatable=0;labelPosition=right;points=[];portConstraint=eastwest;strokeColor=inherit;" vertex="1" parent="ZLsrRHkdfncmAeT86r1m-58">
          <mxGeometry y="89" width="308" height="8" as="geometry" />
        </mxCell>
        <mxCell id="ZLsrRHkdfncmAeT86r1m-62" value="+ getInvited(): boolean" style="text;strokeColor=none;fillColor=none;align=left;verticalAlign=top;spacingLeft=4;spacingRight=4;overflow=hidden;rotatable=0;points=[[0,0.5],[1,0.5]];portConstraint=eastwest;whiteSpace=wrap;html=1;" vertex="1" parent="ZLsrRHkdfncmAeT86r1m-58">
          <mxGeometry y="97" width="308" height="26" as="geometry" />
        </mxCell>
        <mxCell id="ZLsrRHkdfncmAeT86r1m-63" value="+ setInvited(invited: Boolean): void" style="text;strokeColor=none;fillColor=none;align=left;verticalAlign=top;spacingLeft=4;spacingRight=4;overflow=hidden;rotatable=0;points=[[0,0.5],[1,0.5]];portConstraint=eastwest;whiteSpace=wrap;html=1;" vertex="1" parent="ZLsrRHkdfncmAeT86r1m-58">
          <mxGeometry y="123" width="308" height="26" as="geometry" />
        </mxCell>
        <mxCell id="ZLsrRHkdfncmAeT86r1m-64" value="+ getUsedHints(): Integer" style="text;strokeColor=none;fillColor=none;align=left;verticalAlign=top;spacingLeft=4;spacingRight=4;overflow=hidden;rotatable=0;points=[[0,0.5],[1,0.5]];portConstraint=eastwest;whiteSpace=wrap;html=1;" vertex="1" parent="ZLsrRHkdfncmAeT86r1m-58">
          <mxGeometry y="149" width="308" height="26" as="geometry" />
        </mxCell>
        <mxCell id="ZLsrRHkdfncmAeT86r1m-65" value="+ setUsedHints(usedHints: Integer): void" style="text;strokeColor=none;fillColor=none;align=left;verticalAlign=top;spacingLeft=4;spacingRight=4;overflow=hidden;rotatable=0;points=[[0,0.5],[1,0.5]];portConstraint=eastwest;whiteSpace=wrap;html=1;" vertex="1" parent="ZLsrRHkdfncmAeT86r1m-58">
          <mxGeometry y="175" width="308" height="26" as="geometry" />
        </mxCell>
        <mxCell id="ZLsrRHkdfncmAeT86r1m-66" value="&lt;p style=&quot;font-weight: 400; margin: 4px 0px 0px;&quot;&gt;&lt;b&gt;&amp;lt;&amp;lt;Entity&amp;gt;&amp;gt;&lt;/b&gt;&lt;/p&gt;&lt;p style=&quot;font-weight: 400; margin: 4px 0px 0px;&quot;&gt;&lt;b&gt;GameMasterAccount&lt;/b&gt;&lt;/p&gt;&lt;div&gt;&lt;b&gt;&lt;br&gt;&lt;/b&gt;&lt;/div&gt;" style="swimlane;fontStyle=1;align=center;verticalAlign=top;childLayout=stackLayout;horizontal=1;startSize=47;horizontalStack=0;resizeParent=1;resizeParentMax=0;resizeLast=0;collapsible=1;marginBottom=0;whiteSpace=wrap;html=1;fillColor=#9AC7BF;" vertex="1" collapsed="1" parent="1">
          <mxGeometry x="-4330" y="-1740" width="160" height="60" as="geometry">
            <mxRectangle x="-4555" y="-1573" width="324" height="133" as="alternateBounds" />
          </mxGeometry>
        </mxCell>
        <mxCell id="ZLsrRHkdfncmAeT86r1m-67" value="+ invited_Solvers: List &amp;lt;Solvers&amp;gt;" style="text;strokeColor=none;fillColor=none;align=left;verticalAlign=top;spacingLeft=4;spacingRight=4;overflow=hidden;rotatable=0;points=[[0,0.5],[1,0.5]];portConstraint=eastwest;whiteSpace=wrap;html=1;" vertex="1" parent="ZLsrRHkdfncmAeT86r1m-66">
          <mxGeometry y="47" width="324" height="26" as="geometry" />
        </mxCell>
        <mxCell id="ZLsrRHkdfncmAeT86r1m-68" value="" style="line;strokeWidth=1;fillColor=none;align=left;verticalAlign=middle;spacingTop=-1;spacingLeft=3;spacingRight=3;rotatable=0;labelPosition=right;points=[];portConstraint=eastwest;strokeColor=inherit;" vertex="1" parent="ZLsrRHkdfncmAeT86r1m-66">
          <mxGeometry y="73" width="324" height="8" as="geometry" />
        </mxCell>
        <mxCell id="ZLsrRHkdfncmAeT86r1m-69" value="+ getInvitedSolvers(): List &amp;lt;Solver&amp;gt;" style="text;strokeColor=none;fillColor=none;align=left;verticalAlign=top;spacingLeft=4;spacingRight=4;overflow=hidden;rotatable=0;points=[[0,0.5],[1,0.5]];portConstraint=eastwest;whiteSpace=wrap;html=1;" vertex="1" parent="ZLsrRHkdfncmAeT86r1m-66">
          <mxGeometry y="81" width="324" height="26" as="geometry" />
        </mxCell>
        <mxCell id="ZLsrRHkdfncmAeT86r1m-70" value="+ setInvitedSolvers(invitedSolvers: List &amp;lt;Solvers&amp;gt;): void" style="text;strokeColor=none;fillColor=none;align=left;verticalAlign=top;spacingLeft=4;spacingRight=4;overflow=hidden;rotatable=0;points=[[0,0.5],[1,0.5]];portConstraint=eastwest;whiteSpace=wrap;html=1;" vertex="1" parent="ZLsrRHkdfncmAeT86r1m-66">
          <mxGeometry y="107" width="324" height="26" as="geometry" />
        </mxCell>
        <mxCell id="ZLsrRHkdfncmAeT86r1m-71" value="" style="endArrow=block;endSize=16;endFill=0;html=1;rounded=0;exitX=1;exitY=0.5;exitDx=0;exitDy=0;entryX=0;entryY=0.5;entryDx=0;entryDy=0;" edge="1" parent="1" source="ZLsrRHkdfncmAeT86r1m-62" target="ZLsrRHkdfncmAeT86r1m-36">
          <mxGeometry x="-0.4625" y="136" width="160" relative="1" as="geometry">
            <mxPoint x="-5270" y="-1162" as="sourcePoint" />
            <mxPoint x="-4840" y="-1842" as="targetPoint" />
            <mxPoint as="offset" />
            <Array as="points" />
          </mxGeometry>
        </mxCell>
        <mxCell id="ZLsrRHkdfncmAeT86r1m-72" value="" style="endArrow=block;endSize=16;endFill=0;html=1;rounded=0;exitX=0;exitY=0.5;exitDx=0;exitDy=0;entryX=1;entryY=0.5;entryDx=0;entryDy=0;" edge="1" parent="1" source="ZLsrRHkdfncmAeT86r1m-66" target="ZLsrRHkdfncmAeT86r1m-36">
          <mxGeometry x="-0.4625" y="136" width="160" relative="1" as="geometry">
            <mxPoint x="-4968" y="-1739.5" as="sourcePoint" />
            <mxPoint x="-4860" y="-1992" as="targetPoint" />
            <mxPoint as="offset" />
            <Array as="points" />
          </mxGeometry>
        </mxCell>
      </root>
    </mxGraphModel>
  </diagram>
</mxfile>
